<svg width="22" height="22" viewBox="0 0 22 22" fill="none" xmlns="http://www.w3.org/2000/svg">
<path fill-rule="evenodd" clip-rule="evenodd" d="M12.7919 12.2639C11.36 13.6958 9.03842 13.6958 7.60649 12.2639C6.17457 10.832 6.17457 8.51036 7.60649 7.07844C9.03842 5.64652 11.36 5.64652 12.7919 7.07844C14.2239 8.51036 14.2239 10.832 12.7919 12.2639ZM13.2323 13.6469C11.2721 15.1462 8.45651 14.9995 6.66368 13.2067C4.71106 11.2541 4.71106 8.08825 6.66368 6.13563C8.61631 4.18301 11.7821 4.18301 13.7348 6.13563C15.5275 7.92838 15.6743 10.7438 14.1751 12.704L17.7418 16.2707L16.799 17.2135L13.2323 13.6469Z" fill="white"/>
</svg>
